# This file uses centimeters as units for non-parametric coordinates.

mtllib record_player.mtl
g default
v -3.500000 -0.500000 3.500000
v 3.500000 -0.500000 3.500000
v -3.500000 0.500000 3.500000
v 3.500000 0.500000 3.500000
v -3.500000 0.500000 -3.500000
v 3.500000 0.500000 -3.500000
v -3.500000 -0.500000 -3.500000
v 3.500000 -0.500000 -3.500000
vt 0.375000 0.000000
vt 0.625000 0.000000
vt 0.375000 0.250000
vt 0.625000 0.250000
vt 0.375000 0.500000
vt 0.625000 0.500000
vt 0.375000 0.750000
vt 0.625000 0.750000
vt 0.375000 1.000000
vt 0.625000 1.000000
vt 0.875000 0.000000
vt 0.875000 0.250000
vt 0.125000 0.000000
vt 0.125000 0.250000
vn 0.000000 0.000000 1.000000
vn 0.000000 0.000000 1.000000
vn 0.000000 0.000000 1.000000
vn 0.000000 0.000000 1.000000
vn 0.000000 1.000000 0.000000
vn 0.000000 1.000000 0.000000
vn 0.000000 1.000000 0.000000
vn 0.000000 1.000000 0.000000
vn 0.000000 0.000000 -1.000000
vn 0.000000 0.000000 -1.000000
vn 0.000000 0.000000 -1.000000
vn 0.000000 0.000000 -1.000000
vn 0.000000 -1.000000 0.000000
vn 0.000000 -1.000000 0.000000
vn 0.000000 -1.000000 0.000000
vn 0.000000 -1.000000 0.000000
vn 1.000000 0.000000 0.000000
vn 1.000000 0.000000 0.000000
vn 1.000000 0.000000 0.000000
vn 1.000000 0.000000 0.000000
vn -1.000000 0.000000 0.000000
vn -1.000000 0.000000 0.000000
vn -1.000000 0.000000 0.000000
vn -1.000000 0.000000 0.000000
s off
g pCube1
usemtl initialShadingGroup
f 1/1/1 2/2/2 4/4/3 3/3/4
f 3/3/5 4/4/6 6/6/7 5/5/8
f 5/5/9 6/6/10 8/8/11 7/7/12
f 7/7/13 8/8/14 2/10/15 1/9/16
f 2/2/17 8/11/18 6/12/19 4/4/20
f 7/13/21 1/1/22 3/3/23 5/14/24
g default
v 1.975378 0.500000 -0.312869
v 1.902114 0.500000 -0.618034
v 1.782014 0.500000 -0.907981
v 1.618035 0.500000 -1.175571
v 1.414215 0.500000 -1.414214
v 1.175572 0.500000 -1.618035
v 0.907982 0.500000 -1.782014
v 0.618035 0.500000 -1.902114
v 0.312870 0.500000 -1.975378
v 0.000000 0.500000 -2.000001
v -0.312869 0.500000 -1.975378
v -0.618034 0.500000 -1.902114
v -0.907981 0.500000 -1.782014
v -1.175571 0.500000 -1.618035
v -1.414214 0.500000 -1.414215
v -1.618034 0.500000 -1.175571
v -1.782014 0.500000 -0.907982
v -1.902114 0.500000 -0.618035
v -1.975377 0.500000 -0.312869
v -2.000001 0.500000 -0.000000
v -1.975377 0.500000 0.312869
v -1.902114 0.500000 0.618034
v -1.782014 0.500000 0.907981
v -1.618035 0.500000 1.175571
v -1.414214 0.500000 1.414214
v -1.175571 0.500000 1.618034
v -0.907982 0.500000 1.782013
v -0.618034 0.500000 1.902114
v -0.312869 0.500000 1.975377
v -0.000000 0.500000 2.000000
v 0.312869 0.500000 1.975377
v 0.618034 0.500000 1.902114
v 0.907981 0.500000 1.782014
v 1.175571 0.500000 1.618034
v 1.414214 0.500000 1.414214
v 1.618034 0.500000 1.175571
v 1.782013 0.500000 0.907981
v 1.902113 0.500000 0.618034
v 1.975377 0.500000 0.312869
v 2.000000 0.500000 0.000000
v 1.975378 0.750000 -0.312869
v 1.902114 0.750000 -0.618034
v 1.782014 0.750000 -0.907981
v 1.618035 0.750000 -1.175571
v 1.414215 0.750000 -1.414214
v 1.175572 0.750000 -1.618035
v 0.907982 0.750000 -1.782014
v 0.618035 0.750000 -1.902114
v 0.312870 0.750000 -1.975378
v 0.000000 0.750000 -2.000001
v -0.312869 0.750000 -1.975378
v -0.618034 0.750000 -1.902114
v -0.907981 0.750000 -1.782014
v -1.175571 0.750000 -1.618035
v -1.414214 0.750000 -1.414215
v -1.618034 0.750000 -1.175571
v -1.782014 0.750000 -0.907982
v -1.902114 0.750000 -0.618035
v -1.975377 0.750000 -0.312869
v -2.000001 0.750000 -0.000000
v -1.975377 0.750000 0.312869
v -1.902114 0.750000 0.618034
v -1.782014 0.750000 0.907981
v -1.618035 0.750000 1.175571
v -1.414214 0.750000 1.414214
v -1.175571 0.750000 1.618034
v -0.907982 0.750000 1.782013
v -0.618034 0.750000 1.902114
v -0.312869 0.750000 1.975377
v -0.000000 0.750000 2.000000
v 0.312869 0.750000 1.975377
v 0.618034 0.750000 1.902114
v 0.907981 0.750000 1.782014
v 1.175571 0.750000 1.618034
v 1.414214 0.750000 1.414214
v 1.618034 0.750000 1.175571
v 1.782013 0.750000 0.907981
v 1.902113 0.750000 0.618034
v 1.975377 0.750000 0.312869
v 2.000000 0.750000 0.000000
v 0.000000 0.500000 0.000000
v 0.000000 0.750000 0.000000
vt 0.654326 0.131807
vt 0.648603 0.107966
vt 0.639220 0.085314
vt 0.626409 0.064409
vt 0.610486 0.045765
vt 0.591842 0.029841
vt 0.570936 0.017030
vt 0.548284 0.007647
vt 0.524443 0.001924
vt 0.500000 -0.000000
vt 0.475557 0.001924
vt 0.451716 0.007647
vt 0.429064 0.017030
vt 0.408159 0.029841
vt 0.389515 0.045764
vt 0.373591 0.064408
vt 0.360780 0.085314
vt 0.351397 0.107966
vt 0.345674 0.131807
vt 0.343750 0.156250
vt 0.345674 0.180693
vt 0.351397 0.204534
vt 0.360780 0.227186
vt 0.373591 0.248091
vt 0.389515 0.266735
vt 0.408159 0.282659
vt 0.429064 0.295470
vt 0.451716 0.304853
vt 0.475557 0.310576
vt 0.500000 0.312500
vt 0.524443 0.310576
vt 0.548284 0.304853
vt 0.570936 0.295470
vt 0.591841 0.282659
vt 0.610485 0.266735
vt 0.626409 0.248091
vt 0.639220 0.227186
vt 0.648603 0.204534
vt 0.654326 0.180693
vt 0.656250 0.156250
vt 0.375000 0.312500
vt 0.381250 0.312500
vt 0.387500 0.312500
vt 0.393750 0.312500
vt 0.400000 0.312500
vt 0.406250 0.312500
vt 0.412500 0.312500
vt 0.418750 0.312500
vt 0.425000 0.312500
vt 0.431250 0.312500
vt 0.437500 0.312500
vt 0.443750 0.312500
vt 0.450000 0.312500
vt 0.456250 0.312500
vt 0.462500 0.312500
vt 0.468750 0.312500
vt 0.475000 0.312500
vt 0.481250 0.312500
vt 0.487500 0.312500
vt 0.493750 0.312500
vt 0.500000 0.312500
vt 0.506250 0.312500
vt 0.512500 0.312500
vt 0.518750 0.312500
vt 0.525000 0.312500
vt 0.531250 0.312500
vt 0.537500 0.312500
vt 0.543750 0.312500
vt 0.550000 0.312500
vt 0.556250 0.312500
vt 0.562500 0.312500
vt 0.568750 0.312500
vt 0.575000 0.312500
vt 0.581250 0.312500
vt 0.587500 0.312500
vt 0.593750 0.312500
vt 0.600000 0.312500
vt 0.606250 0.312500
vt 0.612500 0.312500
vt 0.618750 0.312500
vt 0.625000 0.312500
vt 0.375000 0.688440
vt 0.381250 0.688440
vt 0.387500 0.688440
vt 0.393750 0.688440
vt 0.400000 0.688440
vt 0.406250 0.688440
vt 0.412500 0.688440
vt 0.418750 0.688440
vt 0.425000 0.688440
vt 0.431250 0.688440
vt 0.437500 0.688440
vt 0.443750 0.688440
vt 0.450000 0.688440
vt 0.456250 0.688440
vt 0.462500 0.688440
vt 0.468750 0.688440
vt 0.475000 0.688440
vt 0.481250 0.688440
vt 0.487500 0.688440
vt 0.493750 0.688440
vt 0.500000 0.688440
vt 0.506250 0.688440
vt 0.512500 0.688440
vt 0.518750 0.688440
vt 0.525000 0.688440
vt 0.531250 0.688440
vt 0.537500 0.688440
vt 0.543750 0.688440
vt 0.550000 0.688440
vt 0.556250 0.688440
vt 0.562500 0.688440
vt 0.568750 0.688440
vt 0.575000 0.688440
vt 0.581250 0.688440
vt 0.587500 0.688440
vt 0.593750 0.688440
vt 0.600000 0.688440
vt 0.606250 0.688440
vt 0.612500 0.688440
vt 0.618750 0.688440
vt 0.625000 0.688440
vt 0.654326 0.819307
vt 0.648603 0.795466
vt 0.639220 0.772814
vt 0.626409 0.751909
vt 0.610486 0.733265
vt 0.591842 0.717341
vt 0.570936 0.704530
vt 0.548284 0.695147
vt 0.524443 0.689424
vt 0.500000 0.687500
vt 0.475557 0.689424
vt 0.451716 0.695147
vt 0.429064 0.704530
vt 0.408159 0.717341
vt 0.389515 0.733264
vt 0.373591 0.751908
vt 0.360780 0.772814
vt 0.351397 0.795466
vt 0.345674 0.819307
vt 0.343750 0.843750
vt 0.345674 0.868193
vt 0.351397 0.892034
vt 0.360780 0.914686
vt 0.373591 0.935591
vt 0.389515 0.954235
vt 0.408159 0.970159
vt 0.429064 0.982970
vt 0.451716 0.992353
vt 0.475557 0.998076
vt 0.500000 1.000000
vt 0.524443 0.998076
vt 0.548284 0.992353
vt 0.570936 0.982970
vt 0.591841 0.970159
vt 0.610485 0.954235
vt 0.626409 0.935591
vt 0.639220 0.914686
vt 0.648603 0.892034
vt 0.654326 0.868193
vt 0.656250 0.843750
vt 0.500000 0.150000
vt 0.500000 0.837500
vn 0.987689 0.000000 -0.156432
vn 0.951057 0.000000 -0.309017
vn 0.951057 0.000000 -0.309017
vn 0.987689 0.000000 -0.156432
vn 0.891007 0.000000 -0.453990
vn 0.891007 0.000000 -0.453990
vn 0.809017 0.000000 -0.587785
vn 0.809017 0.000000 -0.587785
vn 0.707107 0.000000 -0.707107
vn 0.707107 0.000000 -0.707107
vn 0.587785 0.000000 -0.809017
vn 0.587785 0.000000 -0.809017
vn 0.453991 0.000000 -0.891007
vn 0.453991 0.000000 -0.891007
vn 0.309017 0.000000 -0.951056
vn 0.309017 0.000000 -0.951056
vn 0.156435 0.000000 -0.987688
vn 0.156435 0.000000 -0.987688
vn 0.000000 0.000000 -1.000000
vn 0.000000 0.000000 -1.000000
vn -0.156434 0.000000 -0.987688
vn -0.156434 0.000000 -0.987688
vn -0.309017 0.000000 -0.951057
vn -0.309017 0.000000 -0.951057
vn -0.453990 0.000000 -0.891007
vn -0.453990 0.000000 -0.891007
vn -0.587785 0.000000 -0.809017
vn -0.587785 0.000000 -0.809017
vn -0.707107 0.000000 -0.707107
vn -0.707107 0.000000 -0.707107
vn -0.809017 0.000000 -0.587785
vn -0.809017 0.000000 -0.587785
vn -0.891007 0.000000 -0.453991
vn -0.891007 0.000000 -0.453991
vn -0.951057 0.000000 -0.309017
vn -0.951057 0.000000 -0.309017
vn -0.987688 0.000000 -0.156434
vn -0.987688 0.000000 -0.156434
vn -1.000000 0.000000 0.000000
vn -1.000000 0.000000 0.000000
vn -0.987688 0.000000 0.156434
vn -0.987688 0.000000 0.156434
vn -0.951057 0.000000 0.309017
vn -0.951057 0.000000 0.309017
vn -0.891007 0.000000 0.453990
vn -0.891007 0.000000 0.453990
vn -0.809017 0.000000 0.587785
vn -0.809017 0.000000 0.587785
vn -0.707107 0.000000 0.707107
vn -0.707107 0.000000 0.707107
vn -0.587785 0.000000 0.809017
vn -0.587785 0.000000 0.809017
vn -0.453991 0.000000 0.891006
vn -0.453991 0.000000 0.891006
vn -0.309017 0.000000 0.951057
vn -0.309017 0.000000 0.951057
vn -0.156434 0.000000 0.987688
vn -0.156434 0.000000 0.987688
vn -0.000000 0.000000 1.000000
vn -0.000000 0.000000 1.000000
vn 0.156434 0.000000 0.987688
vn 0.156434 0.000000 0.987688
vn 0.309017 0.000000 0.951057
vn 0.309017 0.000000 0.951057
vn 0.453991 0.000000 0.891007
vn 0.453991 0.000000 0.891007
vn 0.587785 0.000000 0.809017
vn 0.587785 0.000000 0.809017
vn 0.707107 0.000000 0.707107
vn 0.707107 0.000000 0.707107
vn 0.809017 0.000000 0.587785
vn 0.809017 0.000000 0.587785
vn 0.891007 0.000000 0.453990
vn 0.891007 0.000000 0.453990
vn 0.951057 0.000000 0.309017
vn 0.951057 0.000000 0.309017
vn 0.987688 0.000000 0.156434
vn 0.987688 0.000000 0.156434
vn 1.000000 0.000000 0.000002
vn 1.000000 0.000000 0.000002
vn 0.000000 -1.000000 0.000000
vn 0.000000 -1.000000 0.000000
vn 0.000000 -1.000000 0.000000
vn 0.000000 -1.000000 0.000000
vn 0.000000 -1.000000 0.000000
vn 0.000000 -1.000000 0.000000
vn 0.000000 -1.000000 0.000000
vn 0.000000 -1.000000 0.000000
vn 0.000000 -1.000000 0.000000
vn 0.000000 -1.000000 0.000000
vn 0.000000 -1.000000 0.000000
vn 0.000000 -1.000000 0.000000
vn 0.000000 -1.000000 0.000000
vn 0.000000 -1.000000 0.000000
vn 0.000000 -1.000000 0.000000
vn 0.000000 -1.000000 0.000000
vn 0.000000 -1.000000 0.000000
vn 0.000000 -1.000000 0.000000
vn 0.000000 -1.000000 0.000000
vn 0.000000 -1.000000 0.000000
vn 0.000000 -1.000000 0.000000
vn 0.000000 -1.000000 0.000000
vn 0.000000 -1.000000 0.000000
vn 0.000000 -1.000000 0.000000
vn 0.000000 -1.000000 0.000000
vn 0.000000 -1.000000 0.000000
vn 0.000000 -1.000000 0.000000
vn 0.000000 -1.000000 0.000000
vn 0.000000 -1.000000 0.000000
vn 0.000000 -1.000000 0.000000
vn 0.000000 -1.000000 0.000000
vn 0.000000 -1.000000 0.000000
vn 0.000000 -1.000000 0.000000
vn 0.000000 -1.000000 0.000000
vn 0.000000 -1.000000 0.000000
vn 0.000000 -1.000000 0.000000
vn 0.000000 -1.000000 0.000000
vn 0.000000 -1.000000 0.000000
vn 0.000000 -1.000000 0.000000
vn 0.000000 -1.000000 0.000000
vn 0.000000 -1.000000 0.000000
vn 0.000000 1.000000 0.000000
vn 0.000000 1.000000 0.000000
vn 0.000000 1.000000 0.000000
vn 0.000000 1.000000 0.000000
vn 0.000000 1.000000 0.000000
vn 0.000000 1.000000 0.000000
vn 0.000000 1.000000 0.000000
vn 0.000000 1.000000 0.000000
vn 0.000000 1.000000 0.000000
vn 0.000000 1.000000 0.000000
vn 0.000000 1.000000 0.000000
vn 0.000000 1.000000 0.000000
vn 0.000000 1.000000 0.000000
vn 0.000000 1.000000 0.000000
vn 0.000000 1.000000 0.000000
vn 0.000000 1.000000 0.000000
vn 0.000000 1.000000 0.000000
vn 0.000000 1.000000 0.000000
vn 0.000000 1.000000 0.000000
vn 0.000000 1.000000 0.000000
vn 0.000000 1.000000 0.000000
vn 0.000000 1.000000 0.000000
vn 0.000000 1.000000 0.000000
vn 0.000000 1.000000 0.000000
vn 0.000000 1.000000 0.000000
vn 0.000000 1.000000 0.000000
vn 0.000000 1.000000 0.000000
vn 0.000000 1.000000 0.000000
vn 0.000000 1.000000 0.000000
vn 0.000000 1.000000 0.000000
vn 0.000000 1.000000 0.000000
vn 0.000000 1.000000 0.000000
vn 0.000000 1.000000 0.000000
vn 0.000000 1.000000 0.000000
vn 0.000000 1.000000 0.000000
vn 0.000000 1.000000 0.000000
vn 0.000000 1.000000 0.000000
vn 0.000000 1.000000 0.000000
vn 0.000000 1.000000 0.000000
vn 0.000000 1.000000 0.000000
vn 0.000000 1.000000 0.000000
s 1
g pCylinder1
usemtl initialShadingGroup
f 9/55/25 10/56/26 50/97/27 49/96/28
f 10/56/26 11/57/29 51/98/30 50/97/27
f 11/57/29 12/58/31 52/99/32 51/98/30
f 12/58/31 13/59/33 53/100/34 52/99/32
f 13/59/33 14/60/35 54/101/36 53/100/34
f 14/60/35 15/61/37 55/102/38 54/101/36
f 15/61/37 16/62/39 56/103/40 55/102/38
f 16/62/39 17/63/41 57/104/42 56/103/40
f 17/63/41 18/64/43 58/105/44 57/104/42
f 18/64/43 19/65/45 59/106/46 58/105/44
f 19/65/45 20/66/47 60/107/48 59/106/46
f 20/66/47 21/67/49 61/108/50 60/107/48
f 21/67/49 22/68/51 62/109/52 61/108/50
f 22/68/51 23/69/53 63/110/54 62/109/52
f 23/69/53 24/70/55 64/111/56 63/110/54
f 24/70/55 25/71/57 65/112/58 64/111/56
f 25/71/57 26/72/59 66/113/60 65/112/58
f 26/72/59 27/73/61 67/114/62 66/113/60
f 27/73/61 28/74/63 68/115/64 67/114/62
f 28/74/63 29/75/65 69/116/66 68/115/64
f 29/75/65 30/76/67 70/117/68 69/116/66
f 30/76/67 31/77/69 71/118/70 70/117/68
f 31/77/69 32/78/71 72/119/72 71/118/70
f 32/78/71 33/79/73 73/120/74 72/119/72
f 33/79/73 34/80/75 74/121/76 73/120/74
f 34/80/75 35/81/77 75/122/78 74/121/76
f 35/81/77 36/82/79 76/123/80 75/122/78
f 36/82/79 37/83/81 77/124/82 76/123/80
f 37/83/81 38/84/83 78/125/84 77/124/82
f 38/84/83 39/85/85 79/126/86 78/125/84
f 39/85/85 40/86/87 80/127/88 79/126/86
f 40/86/87 41/87/89 81/128/90 80/127/88
f 41/87/89 42/88/91 82/129/92 81/128/90
f 42/88/91 43/89/93 83/130/94 82/129/92
f 43/89/93 44/90/95 84/131/96 83/130/94
f 44/90/95 45/91/97 85/132/98 84/131/96
f 45/91/97 46/92/99 86/133/100 85/132/98
f 46/92/99 47/93/101 87/134/102 86/133/100
f 47/93/101 48/94/103 88/135/104 87/134/102
f 48/94/103 9/95/25 49/136/28 88/135/104
s 2
f 10/16/105 9/15/106 89/177/107
f 11/17/108 10/16/105 89/177/107
f 12/18/109 11/17/108 89/177/107
f 13/19/110 12/18/109 89/177/107
f 14/20/111 13/19/110 89/177/107
f 15/21/112 14/20/111 89/177/107
f 16/22/113 15/21/112 89/177/107
f 17/23/114 16/22/113 89/177/107
f 18/24/115 17/23/114 89/177/107
f 19/25/116 18/24/115 89/177/107
f 20/26/117 19/25/116 89/177/107
f 21/27/118 20/26/117 89/177/107
f 22/28/119 21/27/118 89/177/107
f 23/29/120 22/28/119 89/177/107
f 24/30/121 23/29/120 89/177/107
f 25/31/122 24/30/121 89/177/107
f 26/32/123 25/31/122 89/177/107
f 27/33/124 26/32/123 89/177/107
f 28/34/125 27/33/124 89/177/107
f 29/35/126 28/34/125 89/177/107
f 30/36/127 29/35/126 89/177/107
f 31/37/128 30/36/127 89/177/107
f 32/38/129 31/37/128 89/177/107
f 33/39/130 32/38/129 89/177/107
f 34/40/131 33/39/130 89/177/107
f 35/41/132 34/40/131 89/177/107
f 36/42/133 35/41/132 89/177/107
f 37/43/134 36/42/133 89/177/107
f 38/44/135 37/43/134 89/177/107
f 39/45/136 38/44/135 89/177/107
f 40/46/137 39/45/136 89/177/107
f 41/47/138 40/46/137 89/177/107
f 42/48/139 41/47/138 89/177/107
f 43/49/140 42/48/139 89/177/107
f 44/50/141 43/49/140 89/177/107
f 45/51/142 44/50/141 89/177/107
f 46/52/143 45/51/142 89/177/107
f 47/53/144 46/52/143 89/177/107
f 48/54/145 47/53/144 89/177/107
f 9/15/106 48/54/145 89/177/107
s 3
f 49/175/146 50/174/147 90/178/148
f 50/174/147 51/173/149 90/178/148
f 51/173/149 52/172/150 90/178/148
f 52/172/150 53/171/151 90/178/148
f 53/171/151 54/170/152 90/178/148
f 54/170/152 55/169/153 90/178/148
f 55/169/153 56/168/154 90/178/148
f 56/168/154 57/167/155 90/178/148
f 57/167/155 58/166/156 90/178/148
f 58/166/156 59/165/157 90/178/148
f 59/165/157 60/164/158 90/178/148
f 60/164/158 61/163/159 90/178/148
f 61/163/159 62/162/160 90/178/148
f 62/162/160 63/161/161 90/178/148
f 63/161/161 64/160/162 90/178/148
f 64/160/162 65/159/163 90/178/148
f 65/159/163 66/158/164 90/178/148
f 66/158/164 67/157/165 90/178/148
f 67/157/165 68/156/166 90/178/148
f 68/156/166 69/155/167 90/178/148
f 69/155/167 70/154/168 90/178/148
f 70/154/168 71/153/169 90/178/148
f 71/153/169 72/152/170 90/178/148
f 72/152/170 73/151/171 90/178/148
f 73/151/171 74/150/172 90/178/148
f 74/150/172 75/149/173 90/178/148
f 75/149/173 76/148/174 90/178/148
f 76/148/174 77/147/175 90/178/148
f 77/147/175 78/146/176 90/178/148
f 78/146/176 79/145/177 90/178/148
f 79/145/177 80/144/178 90/178/148
f 80/144/178 81/143/179 90/178/148
f 81/143/179 82/142/180 90/178/148
f 82/142/180 83/141/181 90/178/148
f 83/141/181 84/140/182 90/178/148
f 84/140/182 85/139/183 90/178/148
f 85/139/183 86/138/184 90/178/148
f 86/138/184 87/137/185 90/178/148
f 87/137/185 88/176/186 90/178/148
f 88/176/186 49/175/146 90/178/148
g default
v -0.500000 -0.500000 0.500000
v 0.500000 -0.500000 0.500000
v -0.500000 0.500000 0.500000
v 0.500000 0.500000 0.500000
v -0.500000 0.500000 -0.500000
v 0.500000 0.500000 -0.500000
v -0.500000 -0.500000 -0.500000
v 0.500000 -0.500000 -0.500000
vt 0.375000 0.000000
vt 0.625000 0.000000
vt 0.375000 0.250000
vt 0.625000 0.250000
vt 0.375000 0.500000
vt 0.625000 0.500000
vt 0.375000 0.750000
vt 0.625000 0.750000
vt 0.375000 1.000000
vt 0.625000 1.000000
vt 0.875000 0.000000
vt 0.875000 0.250000
vt 0.125000 0.000000
vt 0.125000 0.250000
vn 0.000000 0.000000 1.000000
vn 0.000000 0.000000 1.000000
vn 0.000000 0.000000 1.000000
vn 0.000000 0.000000 1.000000
vn 0.000000 1.000000 0.000000
vn 0.000000 1.000000 0.000000
vn 0.000000 1.000000 0.000000
vn 0.000000 1.000000 0.000000
vn 0.000000 0.000000 -1.000000
vn 0.000000 0.000000 -1.000000
vn 0.000000 0.000000 -1.000000
vn 0.000000 0.000000 -1.000000
vn 0.000000 -1.000000 0.000000
vn 0.000000 -1.000000 0.000000
vn 0.000000 -1.000000 0.000000
vn 0.000000 -1.000000 0.000000
vn 1.000000 0.000000 0.000000
vn 1.000000 0.000000 0.000000
vn 1.000000 0.000000 0.000000
vn 1.000000 0.000000 0.000000
vn -1.000000 0.000000 0.000000
vn -1.000000 0.000000 0.000000
vn -1.000000 0.000000 0.000000
vn -1.000000 0.000000 0.000000
s off
g pCube2
usemtl initialShadingGroup
f 91/179/187 92/180/188 94/182/189 93/181/190
f 93/181/191 94/182/192 96/184/193 95/183/194
f 95/183/195 96/184/196 98/186/197 97/185/198
f 97/185/199 98/186/200 92/188/201 91/187/202
f 92/180/203 98/189/204 96/190/205 94/182/206
f 97/191/207 91/179/208 93/181/209 95/192/210
